<svg width="147" height="42" viewBox="0 0 147 42" fill="none" xmlns="http://www.w3.org/2000/svg">
<path d="M44.961 29.4378C43.9523 29.4378 43.1667 29.1732 42.6045 28.6441C42.0422 28.0983 41.7611 27.3542 41.7611 26.4116V15.0507C41.7611 14.1246 42.034 13.397 42.5797 12.8678C43.1419 12.3386 43.9192 12.074 44.9114 12.074H50.7903C52.4605 12.074 53.7587 12.4874 54.6847 13.3143C55.6108 14.1411 56.0738 15.307 56.0738 16.8119C56.0738 17.6718 55.8506 18.4242 55.4041 19.0692C54.9576 19.6976 54.3457 20.1771 53.5685 20.5079V20.5575C54.445 20.8717 55.1312 21.3678 55.6274 22.0458C56.1235 22.7073 56.3715 23.4928 56.3715 24.4023C56.3715 25.9568 55.9002 27.1888 54.9576 28.0983C54.015 28.9913 52.7251 29.4378 51.088 29.4378H44.961ZM50.9887 19.8133C51.9644 19.8133 52.7417 19.5405 53.3204 18.9947C53.8992 18.449 54.1886 17.7214 54.1886 16.8119C54.1886 15.77 53.8992 14.9763 53.3204 14.4305C52.7417 13.8848 51.8983 13.612 50.7903 13.612H44.9362C44.5559 13.612 44.2417 13.7525 43.9936 14.0337C43.7455 14.2982 43.6215 14.6373 43.6215 15.0507V19.8133H50.9887ZM50.9887 27.8751C52.1298 27.8751 52.998 27.5857 53.5933 27.0069C54.1886 26.4116 54.4863 25.5516 54.4863 24.4271C54.4863 23.4515 54.1721 22.6908 53.5437 22.145C52.9153 21.5993 52.0554 21.3265 50.9639 21.3265H43.6215V26.4612C43.6215 26.8746 43.7455 27.2136 43.9936 27.4782C44.2417 27.7428 44.5559 27.8751 44.9362 27.8751H50.9887ZM65.5404 29.6859C63.3906 29.6859 61.7287 29.1319 60.5545 28.0239C59.3804 26.9159 58.7933 25.3449 58.7933 23.3109C58.7933 21.3595 59.3887 19.8299 60.5793 18.7219C61.77 17.5974 63.3989 17.0351 65.466 17.0351C66.7394 17.0351 67.8721 17.2418 68.8644 17.6552C69.8566 18.0521 70.6255 18.6227 71.1713 19.3668C71.7335 20.0945 72.0146 20.9296 72.0146 21.8722C72.0146 22.5667 71.8162 23.1042 71.4193 23.4845C71.039 23.8649 70.5098 24.0551 69.8318 24.0551H60.6537C60.6537 25.3284 61.0837 26.3289 61.9436 27.0565C62.8036 27.7676 64.0025 28.1231 65.5404 28.1231C66.483 28.1231 67.2933 28.0239 67.9714 27.8255C68.6494 27.6105 69.286 27.2715 69.8814 26.8085C70.1956 26.5439 70.4519 26.4116 70.6503 26.4116C70.7992 26.4116 70.9397 26.4777 71.072 26.61C71.3036 26.8085 71.4193 27.0152 71.4193 27.2302C71.4193 27.3955 71.3201 27.5774 71.1216 27.7759C70.4436 28.4208 69.6499 28.9004 68.7403 29.2146C67.8308 29.5288 66.7642 29.6859 65.5404 29.6859ZM69.286 22.5915C69.5837 22.5915 69.807 22.5337 69.9558 22.4179C70.1046 22.2856 70.179 22.0541 70.179 21.7233C70.179 21.128 69.9806 20.5906 69.5837 20.111C69.1868 19.6314 68.6246 19.2593 67.8969 18.9947C67.1858 18.7302 66.3755 18.5979 65.466 18.5979C63.9942 18.5979 62.8284 18.9617 61.9684 19.6893C61.1251 20.4004 60.7034 21.3678 60.7034 22.5915H69.286ZM75.863 29.6859C75.5818 29.6859 75.3586 29.6032 75.1932 29.4378C75.0279 29.2559 74.9452 29.0079 74.9452 28.6937V17.4816C74.9452 15.7287 75.4413 14.3479 76.4335 13.3391C77.4257 12.3303 78.79 11.826 80.5264 11.826C81.5352 11.826 82.4612 12.0906 83.3046 12.6197C84.1645 13.1324 84.8095 13.8187 85.2394 14.6786C85.6694 13.8021 86.2978 13.1076 87.1246 12.5949C87.968 12.0823 88.9106 11.826 89.9525 11.826C91.6888 11.826 93.0531 12.3303 94.0454 13.3391C95.0376 14.3313 95.5337 15.7122 95.5337 17.4816V28.6937C95.5337 29.0079 95.4427 29.2559 95.2608 29.4378C95.0955 29.6032 94.8722 29.6859 94.5911 29.6859C94.2934 29.6859 94.0619 29.6032 93.8965 29.4378C93.7477 29.2559 93.6733 29.0079 93.6733 28.6937V17.4816C93.6733 16.1752 93.3756 15.1747 92.7803 14.4802C92.2015 13.7856 91.2423 13.4383 89.9029 13.4383C88.7287 13.4383 87.8109 13.8021 87.1494 14.5298C86.488 15.2409 86.1572 16.2248 86.1572 17.4816V28.6937C86.1572 29.0079 86.0745 29.2559 85.9092 29.4378C85.7438 29.6032 85.5206 29.6859 85.2394 29.6859C84.9583 29.6859 84.7351 29.6032 84.5697 29.4378C84.4209 29.2559 84.3464 29.0079 84.3464 28.6937V17.4816C84.3464 16.2579 83.9992 15.2822 83.3046 14.5546C82.6101 13.8104 81.7005 13.4383 80.576 13.4383C79.2365 13.4383 78.2691 13.7856 77.6738 14.4802C77.095 15.1747 76.8056 16.1752 76.8056 17.4816V28.6937C76.8056 29.0079 76.7229 29.2559 76.5575 29.4378C76.3922 29.6032 76.1606 29.6859 75.863 29.6859ZM104.227 29.6859C102.607 29.6859 101.333 29.2229 100.407 28.2968C99.4976 27.3707 99.0429 26.0808 99.0429 24.4271V18.0273C99.0429 17.7131 99.1256 17.4733 99.2909 17.308C99.4563 17.1261 99.6796 17.0351 99.9607 17.0351C100.242 17.0351 100.457 17.1261 100.606 17.308C100.771 17.4733 100.854 17.7131 100.854 18.0273V24.4271C100.854 25.6013 101.168 26.5108 101.796 27.1557C102.425 27.8007 103.301 28.1231 104.426 28.1231C105.319 28.1231 106.112 27.9247 106.807 27.5278C107.502 27.1309 108.039 26.5769 108.419 25.8659C108.816 25.1548 109.015 24.3362 109.015 23.4101V18.0273C109.015 17.7131 109.089 17.4733 109.238 17.308C109.403 17.1261 109.635 17.0351 109.932 17.0351C110.214 17.0351 110.429 17.1261 110.577 17.308C110.743 17.4733 110.825 17.7131 110.825 18.0273V28.6937C110.825 29.0079 110.743 29.2559 110.577 29.4378C110.429 29.6032 110.214 29.6859 109.932 29.6859C109.635 29.6859 109.403 29.5949 109.238 29.413C109.089 29.2311 109.015 28.9913 109.015 28.6937V27.2302C108.403 28.0239 107.692 28.6358 106.881 29.0658C106.071 29.4792 105.186 29.6859 104.227 29.6859ZM119.59 29.6859C118.432 29.6859 117.341 29.4709 116.316 29.0409C115.29 28.5945 114.48 27.9826 113.885 27.2053C113.769 27.04 113.711 26.8746 113.711 26.7092C113.711 26.5439 113.752 26.4033 113.835 26.2875C113.934 26.1552 114.058 26.056 114.207 25.9899C114.339 25.9403 114.447 25.9155 114.53 25.9155C114.678 25.9155 114.802 25.9568 114.902 26.0395C115.017 26.1056 115.15 26.2214 115.299 26.3868C116.373 27.5278 117.804 28.0983 119.59 28.0983C120.45 28.0983 121.144 27.9495 121.674 27.6518C122.203 27.3542 122.467 26.9408 122.467 26.4116C122.467 26.0312 122.36 25.7253 122.145 25.4938C121.946 25.2457 121.599 25.0225 121.103 24.824C120.623 24.609 119.83 24.3114 118.722 23.931C117.647 23.5672 116.803 23.2199 116.192 22.8892C115.58 22.5585 115.125 22.1864 114.827 21.773C114.53 21.343 114.381 20.8221 114.381 20.2102C114.381 19.2511 114.794 18.4821 115.621 17.9033C116.464 17.3245 117.581 17.0351 118.97 17.0351C119.995 17.0351 120.946 17.217 121.822 17.5808C122.699 17.9281 123.36 18.3994 123.807 18.9947C123.939 19.1767 124.005 19.3503 124.005 19.5157C124.005 19.7637 123.873 19.9622 123.608 20.111C123.443 20.2102 123.278 20.2598 123.112 20.2598C122.831 20.2598 122.567 20.1358 122.319 19.8877C121.889 19.4578 121.417 19.1436 120.905 18.9451C120.392 18.7302 119.739 18.6227 118.945 18.6227C118.069 18.6227 117.399 18.7632 116.936 19.0444C116.473 19.3255 116.241 19.7224 116.241 20.235C116.241 20.6154 116.332 20.9213 116.514 21.1528C116.713 21.3678 117.018 21.5662 117.432 21.7481C117.862 21.9135 118.606 22.1698 119.664 22.5171C120.855 22.914 121.773 23.2944 122.418 23.6582C123.079 24.0054 123.551 24.3941 123.832 24.824C124.129 25.254 124.278 25.7832 124.278 26.4116C124.278 27.4038 123.84 28.1976 122.963 28.7929C122.104 29.3882 120.979 29.6859 119.59 29.6859ZM128.46 14.4057C128.097 14.4057 127.782 14.29 127.518 14.0585C127.27 13.8104 127.146 13.5127 127.146 13.1655C127.146 12.8182 127.27 12.5205 127.518 12.2725C127.782 12.0244 128.097 11.9004 128.46 11.9004C128.824 11.9004 129.138 12.0327 129.403 12.2973C129.684 12.5453 129.825 12.8347 129.825 13.1655C129.825 13.4962 129.684 13.7856 129.403 14.0337C129.138 14.2817 128.824 14.4057 128.46 14.4057ZM128.46 29.6859C128.179 29.6859 127.956 29.6032 127.791 29.4378C127.642 29.2559 127.567 29.0079 127.567 28.6937V18.0273C127.567 17.7131 127.642 17.4733 127.791 17.308C127.956 17.1261 128.179 17.0351 128.46 17.0351C128.758 17.0351 128.981 17.1261 129.13 17.308C129.296 17.4733 129.378 17.7131 129.378 18.0273V28.6937C129.378 29.0079 129.296 29.2559 129.13 29.4378C128.981 29.6032 128.758 29.6859 128.46 29.6859ZM139.35 29.6859C138.027 29.6859 136.861 29.4296 135.852 28.9169C134.844 28.3877 134.066 27.6436 133.521 26.6844C132.975 25.7253 132.702 24.609 132.702 23.3357C132.702 22.0789 132.975 20.9792 133.521 20.0366C134.066 19.0774 134.844 18.3415 135.852 17.8289C136.861 17.2997 138.027 17.0351 139.35 17.0351C140.59 17.0351 141.665 17.2088 142.575 17.556C143.484 17.9033 144.204 18.4159 144.733 19.094C144.865 19.2759 144.931 19.4495 144.931 19.6149C144.931 19.8629 144.807 20.0862 144.559 20.2846C144.443 20.3838 144.295 20.4335 144.113 20.4335C143.831 20.4335 143.567 20.3094 143.319 20.0614C142.442 19.0857 141.119 18.5979 139.35 18.5979C137.812 18.5979 136.621 19.0113 135.778 19.8381C134.951 20.6484 134.538 21.8143 134.538 23.3357C134.538 24.8406 134.959 26.0147 135.803 26.8581C136.646 27.7015 137.829 28.1231 139.35 28.1231C140.193 28.1231 140.971 27.9991 141.682 27.7511C142.393 27.4865 142.98 27.1144 143.443 26.6348C143.724 26.3537 143.989 26.2131 144.237 26.2131C144.385 26.2131 144.551 26.2793 144.733 26.4116C144.964 26.61 145.08 26.825 145.08 27.0565C145.08 27.2715 144.989 27.4534 144.807 27.6022C143.997 28.3299 143.153 28.859 142.277 29.1898C141.401 29.5205 140.425 29.6859 139.35 29.6859Z" fill="#141B45"/>
<path fill-rule="evenodd" clip-rule="evenodd" d="M23.6683 39.703C27.5245 43.1186 33.6294 40.7762 34.2111 35.6577L37.4575 7.09058C37.9967 2.34606 33.3127 -1.28011 28.8546 0.430481L4.08594 9.93418C-0.372216 11.6448 -1.42837 17.4734 2.14611 20.6395L23.6683 39.703ZM30.6583 32.8226C30.1662 37.1522 25.0022 39.1337 21.7403 36.2444L3.53491 20.1189C0.511296 17.4407 1.40469 12.5103 5.17577 11.0634L26.1272 3.02432C29.8983 1.57736 33.8604 4.64468 33.4043 8.65801L30.6583 32.8226ZM26.6717 25.7498C26.2189 26.7944 25.5926 27.4861 24.7926 27.825C23.9927 28.164 23.0979 28.119 22.1084 27.69L13.8623 24.1157C12.9002 23.6987 12.2703 23.0991 11.9726 22.3171C11.6809 21.5212 11.7495 20.6286 12.1784 19.639L14.2426 14.8769C14.9336 13.2826 15.8035 12.1985 16.8523 11.6246C17.901 11.0506 19.0644 11.0407 20.3426 11.5947C20.9748 11.8688 21.4853 12.3105 21.8742 12.9198C22.2494 13.5232 22.4463 14.18 22.465 14.8901L22.4857 14.899C23.0327 14.3525 23.6842 13.9982 24.4402 13.8361C25.1883 13.6543 25.8923 13.7064 26.552 13.9924C27.9263 14.5881 28.8116 15.5024 29.2077 16.7353C29.5961 17.9485 29.4537 19.3316 28.7805 20.8846L26.6717 25.7498ZM20.2004 17.4594C20.5042 16.7584 20.5677 16.1411 20.391 15.6073C20.2201 15.0598 19.8117 14.6461 19.1658 14.3661C18.5336 14.0921 17.9859 14.0751 17.5227 14.3151C17.0595 14.5551 16.667 15.0462 16.3453 15.7883L14.4688 20.1176C14.3497 20.3924 14.3437 20.651 14.4509 20.8934C14.564 21.122 14.7786 21.3049 15.0947 21.4419L17.9396 22.675L20.2004 17.4594ZM26.5706 20.2205C27.2854 18.5713 26.8938 17.422 25.3958 16.7727C24.7498 16.4927 24.1529 16.4952 23.6049 16.7801C23.0629 17.0512 22.6221 17.5785 22.2826 18.3619L20.0218 23.5776L23.2996 24.9984C23.6157 25.1354 23.8959 25.167 24.1401 25.0933C24.3902 25.0058 24.5749 24.8246 24.694 24.5498L26.5706 20.2205Z" fill="#141B45"/>
</svg>
