<svg width="138" height="185" viewBox="0 0 138 185" fill="none" xmlns="http://www.w3.org/2000/svg">
<path d="M23.742 176.713C22.6057 176.713 21.7208 176.415 21.0874 175.819C20.454 175.204 20.1373 174.366 20.1373 173.304V160.506C20.1373 159.462 20.4447 158.643 21.0595 158.047C21.6928 157.45 22.5684 157.152 23.6861 157.152H30.3087C32.1902 157.152 33.6526 157.618 34.6958 158.55C35.739 159.481 36.2607 160.794 36.2607 162.49C36.2607 163.458 36.0092 164.306 35.5062 165.032C35.0032 165.74 34.3139 166.281 33.4384 166.653V166.709C34.4257 167.063 35.1988 167.622 35.7577 168.386C36.3165 169.131 36.596 170.016 36.596 171.04C36.596 172.791 36.065 174.179 35.0032 175.204C33.9414 176.21 32.4883 176.713 30.644 176.713H23.742ZM30.5323 165.871C31.6314 165.871 32.5069 165.563 33.1589 164.949C33.8109 164.334 34.137 163.514 34.137 162.49C34.137 161.316 33.8109 160.422 33.1589 159.807C32.5069 159.192 31.5569 158.885 30.3087 158.885H23.7141C23.2856 158.885 22.9317 159.043 22.6522 159.36C22.3728 159.658 22.2331 160.04 22.2331 160.506V165.871H30.5323ZM30.5323 174.952C31.8177 174.952 32.7957 174.626 33.4663 173.974C34.137 173.304 34.4723 172.335 34.4723 171.068C34.4723 169.969 34.1183 169.112 33.4104 168.497C32.7025 167.883 31.7338 167.575 30.5043 167.575H22.2331V173.36C22.2331 173.825 22.3728 174.207 22.6522 174.505C22.9317 174.803 23.2856 174.952 23.7141 174.952H30.5323ZM46.9248 176.992C44.503 176.992 42.6308 176.368 41.3081 175.12C39.9855 173.872 39.3242 172.102 39.3242 169.811C39.3242 167.613 39.9948 165.889 41.3361 164.641C42.6774 163.374 44.5123 162.741 46.8409 162.741C48.2754 162.741 49.5514 162.974 50.6692 163.44C51.7869 163.887 52.6532 164.529 53.2679 165.368C53.9013 166.187 54.218 167.128 54.218 168.19C54.218 168.972 53.9944 169.578 53.5473 170.006C53.1189 170.435 52.5227 170.649 51.759 170.649H41.4199C41.4199 172.083 41.9043 173.211 42.873 174.03C43.8417 174.831 45.1923 175.232 46.9248 175.232C47.9866 175.232 48.8994 175.12 49.6632 174.896C50.427 174.654 51.1442 174.272 51.8148 173.751C52.1688 173.453 52.4575 173.304 52.6811 173.304C52.8488 173.304 53.0071 173.378 53.1561 173.527C53.4169 173.751 53.5473 173.984 53.5473 174.226C53.5473 174.412 53.4356 174.617 53.212 174.841C52.4482 175.567 51.554 176.107 50.5295 176.461C49.5049 176.815 48.3033 176.992 46.9248 176.992ZM51.1442 169C51.4795 169 51.731 168.935 51.8987 168.805C52.0663 168.656 52.1502 168.395 52.1502 168.022C52.1502 167.352 51.9266 166.746 51.4795 166.206C51.0324 165.666 50.3991 165.247 49.5794 164.949C48.7783 164.651 47.8655 164.502 46.8409 164.502C45.183 164.502 43.8696 164.911 42.9009 165.731C41.9508 166.532 41.4758 167.622 41.4758 169H51.1442ZM58.5531 176.992C58.2364 176.992 57.9849 176.899 57.7987 176.713C57.6124 176.508 57.5192 176.228 57.5192 175.874V163.244C57.5192 161.269 58.0781 159.714 59.1958 158.578C60.3136 157.441 61.8504 156.873 63.8065 156.873C64.9428 156.873 65.9861 157.171 66.9361 157.767C67.9048 158.345 68.6314 159.118 69.1157 160.086C69.6001 159.099 70.308 158.317 71.2394 157.739C72.1895 157.162 73.2513 156.873 74.425 156.873C76.381 156.873 77.9179 157.441 79.0356 158.578C80.1534 159.695 80.7122 161.251 80.7122 163.244V175.874C80.7122 176.228 80.6098 176.508 80.4049 176.713C80.2186 176.899 79.9671 176.992 79.6504 176.992C79.3151 176.992 79.0543 176.899 78.868 176.713C78.7003 176.508 78.6165 176.228 78.6165 175.874V163.244C78.6165 161.772 78.2812 160.645 77.6105 159.863C76.9585 159.08 75.878 158.689 74.3691 158.689C73.0464 158.689 72.0125 159.099 71.2674 159.919C70.5222 160.72 70.1496 161.828 70.1496 163.244V175.874C70.1496 176.228 70.0565 176.508 69.8702 176.713C69.6839 176.899 69.4324 176.992 69.1157 176.992C68.799 176.992 68.5475 176.899 68.3613 176.713C68.1936 176.508 68.1098 176.228 68.1098 175.874V163.244C68.1098 161.866 67.7186 160.766 66.9361 159.947C66.1537 159.108 65.1291 158.689 63.8624 158.689C62.3534 158.689 61.2636 159.08 60.593 159.863C59.941 160.645 59.615 161.772 59.615 163.244V175.874C59.615 176.228 59.5218 176.508 59.3355 176.713C59.1493 176.899 58.8885 176.992 58.5531 176.992ZM90.5055 176.992C88.6799 176.992 87.2454 176.471 86.2022 175.427C85.1776 174.384 84.6653 172.931 84.6653 171.068V163.859C84.6653 163.505 84.7585 163.235 84.9448 163.048C85.1311 162.844 85.3826 162.741 85.6992 162.741C86.0159 162.741 86.2581 162.844 86.4258 163.048C86.6121 163.235 86.7052 163.505 86.7052 163.859V171.068C86.7052 172.391 87.0592 173.415 87.7671 174.142C88.475 174.869 89.4623 175.232 90.7291 175.232C91.735 175.232 92.6292 175.008 93.4116 174.561C94.194 174.114 94.7995 173.49 95.2279 172.689C95.675 171.888 95.8986 170.966 95.8986 169.923V163.859C95.8986 163.505 95.9824 163.235 96.1501 163.048C96.3364 162.844 96.5972 162.741 96.9325 162.741C97.2492 162.741 97.4913 162.844 97.659 163.048C97.8453 163.235 97.9384 163.505 97.9384 163.859V175.874C97.9384 176.228 97.8453 176.508 97.659 176.713C97.4913 176.899 97.2492 176.992 96.9325 176.992C96.5972 176.992 96.3364 176.89 96.1501 176.685C95.9824 176.48 95.8986 176.21 95.8986 175.874V174.226C95.2093 175.12 94.4083 175.809 93.4954 176.294C92.5826 176.759 91.586 176.992 90.5055 176.992ZM107.812 176.992C106.508 176.992 105.278 176.75 104.123 176.266C102.968 175.763 102.055 175.073 101.385 174.198C101.254 174.012 101.189 173.825 101.189 173.639C101.189 173.453 101.236 173.294 101.329 173.164C101.441 173.015 101.58 172.903 101.748 172.829C101.897 172.773 102.018 172.745 102.111 172.745C102.279 172.745 102.419 172.791 102.53 172.885C102.661 172.959 102.81 173.089 102.977 173.276C104.188 174.561 105.8 175.204 107.812 175.204C108.78 175.204 109.563 175.036 110.159 174.701C110.755 174.366 111.053 173.9 111.053 173.304C111.053 172.875 110.932 172.531 110.69 172.27C110.466 171.99 110.075 171.739 109.516 171.515C108.976 171.273 108.082 170.938 106.834 170.509C105.623 170.1 104.673 169.708 103.983 169.336C103.294 168.963 102.782 168.544 102.446 168.078C102.111 167.594 101.944 167.007 101.944 166.318C101.944 165.237 102.409 164.371 103.341 163.719C104.291 163.067 105.548 162.741 107.113 162.741C108.268 162.741 109.339 162.946 110.327 163.356C111.314 163.747 112.059 164.278 112.562 164.949C112.711 165.154 112.786 165.349 112.786 165.535C112.786 165.815 112.637 166.038 112.338 166.206C112.152 166.318 111.966 166.374 111.78 166.374C111.463 166.374 111.165 166.234 110.885 165.955C110.401 165.47 109.87 165.116 109.293 164.893C108.715 164.651 107.979 164.529 107.085 164.529C106.098 164.529 105.343 164.688 104.822 165.004C104.3 165.321 104.039 165.768 104.039 166.346C104.039 166.774 104.142 167.119 104.347 167.38C104.57 167.622 104.915 167.845 105.381 168.05C105.865 168.237 106.703 168.525 107.895 168.917C109.237 169.364 110.271 169.792 110.997 170.202C111.742 170.593 112.273 171.031 112.59 171.515C112.925 172 113.093 172.596 113.093 173.304C113.093 174.421 112.599 175.316 111.612 175.986C110.643 176.657 109.376 176.992 107.812 176.992ZM117.804 159.779C117.394 159.779 117.04 159.649 116.742 159.388C116.463 159.108 116.323 158.773 116.323 158.382C116.323 157.991 116.463 157.655 116.742 157.376C117.04 157.097 117.394 156.957 117.804 156.957C118.214 156.957 118.568 157.106 118.866 157.404C119.183 157.683 119.341 158.009 119.341 158.382C119.341 158.754 119.183 159.08 118.866 159.36C118.568 159.639 118.214 159.779 117.804 159.779ZM117.804 176.992C117.488 176.992 117.236 176.899 117.05 176.713C116.882 176.508 116.798 176.228 116.798 175.874V163.859C116.798 163.505 116.882 163.235 117.05 163.048C117.236 162.844 117.488 162.741 117.804 162.741C118.14 162.741 118.391 162.844 118.559 163.048C118.745 163.235 118.838 163.505 118.838 163.859V175.874C118.838 176.228 118.745 176.508 118.559 176.713C118.391 176.899 118.14 176.992 117.804 176.992ZM130.071 176.992C128.581 176.992 127.268 176.703 126.131 176.126C124.995 175.53 124.119 174.692 123.505 173.611C122.89 172.531 122.583 171.273 122.583 169.839C122.583 168.423 122.89 167.184 123.505 166.122C124.119 165.042 124.995 164.213 126.131 163.635C127.268 163.039 128.581 162.741 130.071 162.741C131.469 162.741 132.679 162.937 133.704 163.328C134.729 163.719 135.539 164.297 136.135 165.06C136.284 165.265 136.359 165.461 136.359 165.647C136.359 165.927 136.219 166.178 135.939 166.402C135.809 166.513 135.641 166.569 135.436 166.569C135.12 166.569 134.822 166.43 134.542 166.15C133.555 165.051 132.065 164.502 130.071 164.502C128.339 164.502 126.998 164.967 126.048 165.899C125.116 166.811 124.65 168.125 124.65 169.839C124.65 171.534 125.125 172.857 126.075 173.807C127.026 174.757 128.357 175.232 130.071 175.232C131.021 175.232 131.897 175.092 132.698 174.813C133.499 174.515 134.16 174.095 134.682 173.555C134.999 173.238 135.297 173.08 135.576 173.08C135.744 173.08 135.93 173.155 136.135 173.304C136.396 173.527 136.526 173.769 136.526 174.03C136.526 174.272 136.424 174.477 136.219 174.645C135.306 175.465 134.356 176.061 133.369 176.433C132.381 176.806 131.282 176.992 130.071 176.992Z" fill="black"/>
<path fill-rule="evenodd" clip-rule="evenodd" d="M85.3001 142.924C99.1819 155.22 121.158 146.787 123.252 128.362L134.939 25.5249C136.88 8.44543 120.018 -4.60817 103.97 1.54966L14.8069 35.7614C-1.24172 41.9192 -5.0437 62.9014 7.82384 74.2989L85.3001 142.924ZM110.463 118.156C108.691 133.742 90.1018 140.875 78.3594 130.474L12.8232 72.4247C1.93873 62.7837 5.15479 45.0352 18.7301 39.8263L94.1518 10.8871C107.727 5.67826 121.99 16.7201 120.348 31.1674L110.463 118.156ZM96.2987 92.7763C94.6689 96.5364 92.4142 99.0265 89.5345 100.247C86.6548 101.467 83.4339 101.305 79.8717 99.7607L50.187 86.8936C46.7238 85.3924 44.4563 83.2342 43.3847 80.4189C42.3344 77.554 42.5813 74.3405 44.1253 70.7784L51.5561 53.6355C54.0437 47.8964 57.1752 43.9939 60.9505 41.9278C64.7258 39.8617 68.914 39.8259 73.5151 41.8203C75.791 42.8067 77.6289 44.3968 79.0288 46.5904C80.3793 48.7626 81.0882 51.1268 81.1556 53.6831L81.2298 53.7153C83.1992 51.748 85.5445 50.4726 88.2658 49.889C90.959 49.2346 93.493 49.422 95.8678 50.4514C100.815 52.5959 104.002 55.8873 105.428 60.3255C106.826 64.6928 106.314 69.6717 103.89 75.2624L96.2987 92.7763ZM73.0033 62.9319C74.097 60.4087 74.3256 58.1864 73.6892 56.265C73.0743 54.2941 71.6042 52.8047 69.2789 51.7968C67.003 50.8103 65.0314 50.7491 63.3639 51.6131C61.6965 52.4771 60.2837 54.245 59.1257 56.9166L52.3705 72.501C51.9416 73.4905 51.92 74.4215 52.3059 75.294C52.7131 76.117 53.4857 76.7751 54.6236 77.2684L64.8649 81.7075L73.0033 62.9319ZM95.9347 72.8718C98.5081 66.9348 97.0985 62.7976 91.7058 60.4601C89.3805 59.4522 87.2315 59.461 85.2589 60.4866C83.3078 61.4628 81.7211 63.3608 80.4987 66.1809L72.3602 84.9565L84.1599 90.0711C85.2978 90.5644 86.3063 90.6783 87.1854 90.4128C88.0859 90.0979 88.7506 89.4457 89.1795 88.4563L95.9347 72.8718Z" fill="#141B45"/>
</svg>
